<svg xmlns="http://www.w3.org/2000/svg" version="1.1" xmlns:xlink="http://www.w3.org/1999/xlink" xmlns:svgjs="http://svgjs.com/svgjs" width="512" height="512" x="0" y="0" viewBox="0 0 512 512" style="enable-background:new 0 0 512 512" xml:space="preserve" class=""><g><linearGradient id="GradientFill_1" gradientUnits="userSpaceOnUse" x1="-.021" x2="511.976" y1="255.988" y2="255.988"><stop stop-opacity="1" stop-color="#ffffff" offset="0"></stop><stop stop-opacity="1" stop-color="#ffffff" offset="1"></stop></linearGradient><path d="m42.467 81.876a15.992 15.992 0 0 1 16-16h35.241a16 16 0 1 1 0 32.008h-35.237a16.037 16.037 0 0 1 -16-16zm213.514 198.617a13.861 13.861 0 1 1 -13.86 13.861 13.88 13.88 0 0 1 13.86-13.861zm0 59.729a45.868 45.868 0 1 0 -45.86-45.868 45.92 45.92 0 0 0 45.86 45.868zm-198.21-151.035a15.989 15.989 0 0 1 16-16h.493a15.968 15.968 0 1 1 0 31.936h-.493a15.975 15.975 0 0 1 -16-15.932zm198.21 2.857a102.31 102.31 0 1 0 102.331 102.31 102.415 102.415 0 0 0 -102.331-102.31zm0 236.626c74.067 0 134.331-60.228 134.331-134.316s-60.264-134.317-134.331-134.317-134.324 60.228-134.324 134.317 60.264 134.316 134.324 134.316zm-224.002-288.57v308.5a4.08 4.08 0 0 0 4 4h440a4.064 4.064 0 0 0 3.994-4v-308.5a4.016 4.016 0 0 0 -3.994-4h-440a4.032 4.032 0 0 0 -4 4zm138.761-80.729h170.489l14.525 44.729h-199.532zm-134.76 425.241h440a36.037 36.037 0 0 0 35.996-36.012v-308.5a36.037 36.037 0 0 0 -35.994-36h-86.591l-21.32-65.658a16.045 16.045 0 0 0 -15.218-11.075h-193.73a16.042 16.042 0 0 0 -15.223 11.071l-21.328 65.662h-86.592a36.043 36.043 0 0 0 -36 36.008v308.492a36.043 36.043 0 0 0 36 36.012z" fill="url(#GradientFill_1)" fill-rule="evenodd" data-original="url(#GradientFill_1)"></path></g></svg>