<svg id="Capa_1" enable-background="new 0 0 512 512" height="512" viewBox="0 0 512 512" width="512" xmlns="http://www.w3.org/2000/svg"><g><g><path d="m120.927 376.18v-173.604c-.244-3.309-.368-6.651-.368-10.022 0-74.284 60.219-134.504 134.504-134.504s134.504 60.219 134.504 134.504c0 7.297-.581 14.459-1.7 21.441v162.185z" fill="#fecc6e"/><g><path d="m255.063 32.036c-4.204 0-7.611-3.408-7.611-7.612v-16.813c0-4.204 3.408-7.611 7.611-7.611 4.204 0 7.611 3.408 7.611 7.611v16.813c0 4.204-3.408 7.612-7.611 7.612z" fill="#fecc6e"/></g><g><path d="m136.177 81.28c-1.948 0-3.896-.743-5.382-2.229l-11.889-11.889c-2.973-2.972-2.973-7.792 0-10.764 2.972-2.972 7.792-2.972 10.764 0l11.889 11.889c2.973 2.972 2.973 7.792 0 10.764-1.486 1.486-3.434 2.229-5.382 2.229z" fill="#fecc6e"/></g><g><path d="m373.948 81.28c-1.948 0-3.896-.743-5.382-2.229-2.973-2.972-2.973-7.792 0-10.764l11.888-11.889c2.972-2.972 7.792-2.972 10.764 0 2.973 2.972 2.973 7.792 0 10.764l-11.888 11.889c-1.486 1.486-3.434 2.229-5.382 2.229z" fill="#fecc6e"/></g><path d="m255.063 58.05c-3.933 0-7.824.179-11.671.509 68.818 5.917 122.833 63.643 122.833 133.994 0 2.085-.047 4.159-.141 6.221-.831 18.262-1.558 36.529-1.558 54.81v122.596h23.342v-162.185c1.118-6.982 1.7-14.144 1.7-21.441-.002-74.284-60.221-134.504-134.505-134.504z" fill="#feae5a"/></g><g><path d="m508.84 338.721v-176.311c0-2.23-.886-4.368-2.462-5.944l-17.881-17.881c-7.086-7.086-18.757-6.439-25.017 1.385l-53.805 67.257c-1.111 1.388-2.646 2.373-4.371 2.805l-51.427 12.857c-8.447 2.112-15.745 7.417-20.359 14.8l-34.247 54.796v131.962h171.233z" fill="#aad264"/><g fill="#8cbe69"><path d="m506.669 156.466-17.881-17.881c-6.57-6.57-17.076-6.481-23.561-.197.071.069.149.126.219.197l17.881 17.881c1.577 1.576 2.462 3.715 2.462 5.944v228.506l23.342-52.196v-176.31c.001-2.229-.885-4.368-2.462-5.944z"/><path d="m456.553 181.498-32.872 8.218-14.009 17.511c-1.036 1.295-2.451 2.22-4.036 2.691l54.608-13.652c4.078-1.019 6.558-5.152 5.538-9.23-1.019-4.079-5.154-6.558-9.229-5.538z"/><path d="m507.257 320.497c-4.592-2.113-9.882-2.449-14.756-.824l-34.391 11.463c-5.522 1.84-10.287 5.275-13.78 9.932l-40.663 54.218-34.411-22.941c-7.367-4.912-16.41-6.122-24.807-3.322l-35.108 11.703c-4.138 1.38-8.076 3.371-11.654 5.873v37.847h171.233l38.337-85.726z"/></g></g><path d="m269.053 280.395 4.291-4.818-128.548-36.703h-115.527l-26.401 71.371v193.349l8.418 8.406h227.138l184.768-52.917v-63.927z" fill="#8cbe69"/><path d="m423.192 459.083v-70.378l-9.263-7.102-10.263 13.684-34.411-22.941c-7.367-4.912-16.41-6.122-24.807-3.322l-35.108 11.703c-6.636 2.212-12.759 5.996-17.705 10.942l-27.887 27.912-35.11-1.193 32.145 87.208z" fill="#6ea573"/><path d="m423.192 406.61v-17.905l-146.2-112.086-37.053-10.58z" fill="#6ea573"/><path d="m497.604 335.112h-14.51l-21.294 7.098c-3.244 1.082-6.082 3.127-8.134 5.863l-47.288 63.05-43.597-29.065c-4.317-2.878-9.721-3.602-14.643-1.961l-35.107 11.703c-4.952 1.651-9.452 4.432-13.144 8.123l-30.137 30.137h-24.37l30.203 81.94h214.861c2.641 0 5.13-.626 7.354-1.711.538-26.899-.194-175.177-.194-175.177z" fill="#aad264"/><g fill="#8cbe69"><path d="m392.286 417.24c3.585 2.39 8.413 1.563 10.999-1.884l7.702-10.378c-2.585 3.447-7.413 4.274-10.999 1.884l-37.206-24.804c-4.317-2.878-9.721-3.602-14.643-1.961l-7.759 2.586z"/><path d="m498.067 330.746-13.098 4.366c.517 1.084.821 2.299.821 3.609v156.466c0 9.286-7.527 16.813-16.813 16.813h23.342c9.286 0 16.813-7.527 16.813-16.813v-156.466c0-5.738-5.622-9.79-11.065-7.975z"/></g><g><path d="m259.436 453.935c-1.442-2.798.589-6.13 3.736-6.13h2.242c6.459 0 10.505-6.981 7.294-12.585l-13.806-24.097-45.185-26.014-45.064 25.803-13.927 24.309c-3.211 5.604.835 12.585 7.294 12.585h2.242c3.147 0 5.178 3.332 3.736 6.13l-23.619 45.806c-2.885 5.595 1.177 12.259 7.472 12.259h123.731c6.295 0 10.357-6.664 7.472-12.259z" fill="#aad264"/><path d="m259.436 453.935c-1.442-2.798.589-6.13 3.736-6.13h2.242c6.459 0 10.505-6.981 7.294-12.585l-13.806-24.097-34.831-20.053 25.294 44.15c3.211 5.604-.835 12.585-7.294 12.585h-2.242c-3.147 0-5.178 3.332-3.736 6.13l23.619 45.806c2.885 5.595-1.177 12.259-7.472 12.259h23.342c6.295 0 10.357-6.664 7.472-12.259z" fill="#d2e673"/><g fill="#fafeff"><path d="m217.09 327.22c-.532-.532-15.042 0-15.043 0l-17.105 24.88c-3.835 5.577.159 13.169 6.927 13.169 1.306 0 2.125 1.412 1.475 2.545l-24.691 43.097 36.221-14.306c3.749-1.481 7.906-1.565 11.712-.238l42.316 14.756-23.317-29.003c.001-.001-17.963-54.368-18.495-54.9z"/><path d=""/></g><path d="m212.224 365.269c-1.306 0-2.125 1.412-1.475 2.545l18.985 33.137 29.169 10.171-24.812-43.308c-.649-1.133.169-2.545 1.475-2.545 6.769 0 10.762-7.591 6.927-13.169l-21.848-31.779c-3.34-4.859-10.514-4.859-13.855 0l-4.744 6.9 17.105 24.879c3.835 5.577-.158 13.169-6.927 13.169z" fill="#a7d9ff"/></g><g><path d="m118.87 453.935c-1.442-2.798.588-6.13 3.736-6.13h2.242c6.459 0 10.505-6.981 7.294-12.585l-13.806-24.097-45.185-26.014-45.064 25.803-13.926 24.308c-3.211 5.604.835 12.585 7.294 12.585h2.242c3.147 0 5.178 3.332 3.736 6.13l-23.619 45.806c-2.885 5.594 1.177 12.259 7.472 12.259h123.731c6.295 0 10.357-6.664 7.472-12.259z" fill="#aad264"/><path d="m118.87 453.935c-1.442-2.798.588-6.13 3.736-6.13h2.242c6.459 0 10.505-6.981 7.294-12.585l-13.806-24.097-34.831-20.053 25.294 44.15c3.211 5.604-.835 12.585-7.294 12.585h-2.242c-3.147 0-5.178 3.332-3.736 6.13l23.619 45.806c2.885 5.595-1.177 12.259-7.472 12.259h23.342c6.295 0 10.357-6.664 7.472-12.259z" fill="#d2e673"/><g fill="#fafeff"><path d="m87.952 359.33-18.165-32.11h-8.307l-17.104 24.88c-3.835 5.577.159 13.169 6.927 13.169 1.306 0 2.125 1.412 1.475 2.545l-24.691 43.097 36.221-14.306c3.749-1.481 7.906-1.565 11.712-.238l42.316 14.756-31.925-30.765z"/><path d=""/></g><path d="m71.658 365.269c-1.306 0-2.125 1.412-1.475 2.545l18.985 33.137 29.169 10.171-24.812-43.308c-.649-1.133.169-2.545 1.475-2.545 6.769 0 10.762-7.591 6.927-13.169l-21.848-31.779c-3.34-4.859-10.514-4.859-13.855 0l-4.744 6.9 17.105 24.879c3.835 5.577-.159 13.169-6.927 13.169z" fill="#a7d9ff"/></g><path d="m381.489 410.102 67.252 44.835c1.298.865 2.764 1.28 4.215 1.28 2.459 0 4.874-1.19 6.34-3.391 2.332-3.498 1.387-8.224-2.111-10.555l-49.444-32.963-1.362 1.815-22.209-14.806c-1.891.391-3.636 1.495-4.792 3.23-2.332 3.497-1.387 8.223 2.111 10.555z" fill="#8cbe69"/><path d="m226.228 254.716-7.638-2.202-3.888-.834-9.275-1.85-6.43-1.342-12.086-2.683-39.592-15.089-35.477-24.963-28.333-29.417c-3.989-1.641-8.137-2.907-12.395-3.758l-58.191-11.638c-5.202-1.04-10.055 2.939-10.055 8.243v141.062l46.369-46.37c11.14-11.14 29.489-10.123 39.331 2.178l32.799 40.999c8.919 11.148 25.078 13.2 36.5 4.634l28.417-21.312c10.523-7.892 25.249-6.846 34.55 2.456 9.811 9.811 25.538 10.366 36.016 1.271l20.142-17.482h-14.407z" fill="#fafeff"/><path d="m39.781 166.379c10.398 2.08 20.157 6.589 28.481 13.159l47.352 37.38c16.553 13.067 35.948 22.059 56.617 26.249l43.885 8.896c5.01 1.016 9.722 3.16 13.778 6.27l36.185 27.757 10.914-9.472-15.765-12.087c-4.056-3.11-8.769-5.254-13.778-6.27l-43.885-8.896c-20.669-4.19-40.063-13.182-56.617-26.249l-47.352-37.38c-8.324-6.571-18.083-11.079-28.481-13.159z" fill="#a7d9ff"/></g></svg>