<svg xmlns="http://www.w3.org/2000/svg" viewBox="0 0 224.51 220.34"><defs><style>.cls-1{fill:#fff;}.cls-1,.cls-2{opacity:0.25;}</style></defs><g id="Layer_2" data-name="Layer 2"><g id="Layer_1-2" data-name="Layer 1"><path class="cls-1" d="M0,220.34V0H224.51V220.34ZM147.28,113.78,99,20.62l-1.79,1,.7,1.38q23.68,45.69,47.38,91.37a2.09,2.09,0,0,1-.1,2.48Q137,129.16,128.94,141.5c-.25.37-.48.76-.78,1.24l78.59,1.68.2-1.88-75.12-1.67C151.38,110.29,172,80.75,192,50.67l-1.54-.91ZM69.71,102.57c1.77-2.53,3.35-4.81,5-7.15l-8.84-5.34c-1.51,2.19-3,4.25-4.33,6.35a1.22,1.22,0,0,0,.25,1.14C64.36,99.26,67,100.88,69.71,102.57Zm62.74-27.26c3-1.52,6-3,8.92-4.52a1.15,1.15,0,0,0,.18-1.07c-1-2-2-3.91-3.06-5.81a1.21,1.21,0,0,0-1.11-.32c-1.33.54-2.61,1.19-3.89,1.85-1.61.82-3.21,1.69-4.85,2.56Zm-65.2,67.27,4,7.31c3-1.53,6-3,8.9-4.54a.93.93,0,0,0,.23-.88C79.2,142.22,78,140,76.7,137.69ZM112,71.11c.24-3,.46-5.82.7-8.68.06-.79-.12-1.33-1-1.35-2.2,0-4.39-.1-6.59-.17-.72,0-1.07.21-1.11,1-.09,1.8-.32,3.58-.42,5.37-.07,1.22,0,2.45,0,3.83ZM66,125.69l4.78-7L62,113.17l-4.92,7.22ZM90.26,164.1l9.49-4.87c-1.33-2.47-2.63-4.87-3.92-7.28l-9.59,4.87Zm48.94-17c-.19,3.14-.4,6.16-.54,9.19a1,1,0,0,0,.6.78c2.62.05,5.25,0,8.08,0,.19-3.1.4-6.16.52-9.23,0-.24-.58-.73-.89-.74C144.46,147.1,141.94,147.13,139.2,147.13ZM85,70.07V70c-.87-.05-1.75-.08-2.63-.15s-1.54.2-1.38,1.32a5.49,5.49,0,0,1,0,1.07q-.25,3.28-.52,6.56c-.06.69.13,1.28.88,1.31,2.3.12,4.62.19,6.93.19.28,0,.78-.54.81-.87.24-2.58.34-5.18.58-7.76.1-1.12-.42-1.56-1.41-1.6S86.08,70.07,85,70.07Zm40,86.23c-2.81-.11-5.39-.24-8-.26-.26,0-.7.56-.76.91-.15,1-.15,2.06-.21,3.09-.12,2-.24,3.94-.36,6,2.28.1,4.39.22,6.5.29s2.13.06,2.31-2C124.73,161.71,124.84,159.05,125,156.3ZM171.23,107l-8.82-5.46-4.72,7,8.76,5.51Zm-68.55,76c2.71-1.34,5.16-2.57,7.64-3.77.6-.3.89-.67.55-1.3-1.1-2.11-2.22-4.21-3.33-6.32l-7.65,3.86c-.49.25-.94.49-.57,1.18C100.43,178.65,101.51,180.72,102.68,182.93ZM53.91,145.49l4.7-6.74-8-4.94L46,140.7ZM117,48.72l3.76,7,8.44-4.29c-1.29-2.54-2.45-4.84-3.63-7.18Zm65.34,37.92-7.94-4.89c-1.57,2.27-3.08,4.46-4.66,6.73l7.86,4.86ZM56.87,80.58h8.31l.59-8.85c-2.69-.12-5.19-.25-7.69-.32a.88.88,0,0,0-.64.61C57.22,74.8,57.06,77.58,56.87,80.58Zm106.29,66.13c-.2,2.92-.4,5.86-.6,8.69h8.36c.2-2.55.33-4.89.59-7.23.11-1-.27-1.42-1.1-1.44C168.07,146.68,165.73,146.71,163.16,146.71Zm-59.49-72.8c-.21,2.29-.41,4.59-.63,6.89-.07.73.24,1.21,1,1.23,2.27.07,4.54.08,6.81.13.61,0,1-.23,1-.88.13-2.2.28-4.39.37-6.58,0-.26-.31-.76-.48-.76C109,73.89,106.33,73.91,103.67,73.91ZM149.35,91.1c-1.32-2.5-2.6-4.92-3.9-7.4l-7.82,4.08,3.87,7.28ZM82.9,143.5l7.76-4.08c-1.29-2.42-2.56-4.79-3.86-7.21l-7.8,4C80.31,138.67,81.59,141,82.9,143.5Zm41.85,9.92c.15-2.58.3-5.26.47-8.14h-8.64l-.64,8.14ZM84.4,100.9l-7.25-4.52-4.78,7,7.2,4.47C81.22,105.48,82.78,103.22,84.4,100.9Zm66.79,30,4.72-6.94-7.17-4.53c-1.63,2.35-3.19,4.59-4.83,6.93ZM53.94,93.66l-4,5.82,7.38,4.71c1.21-1.77,2.27-3.4,3.41-5,.53-.73.44-1.22-.29-1.65C58.31,96.29,56.2,95,53.94,93.66Zm49.15-31.79c.2-2.61.41-5.08.59-7.54.06-.86-.41-1.24-1.23-1.25l-3.84,0c-1.94,0-2,0-2.18,1.87-.2,2.17-.3,4.34-.45,6.6ZM51,104.31l-3.72,5.41,8,4.78,3.76-5.5Zm13.42,26.13c-.73-.38-1.42-.68-2.06-1.07-1.79-1.11-3.54-2.28-5.34-3.36a1.16,1.16,0,0,0-1.11.09c-1.13,1.53-2.18,3.13-3.32,4.82l8,4.9Zm66.42-76c-2.64,1.37-5.11,2.68-7.6,3.92-.65.33-.82.73-.51,1.32.72,1.38,1.45,2.75,2.23,4.08a.9.9,0,0,0,.84.31c2.71-1.31,5.4-2.67,8.18-4.06ZM124.58,174c2.3.09,4.33.21,6.37.23a1.1,1.1,0,0,0,.81-.69c.23-2.31.4-4.63.49-6.94,0-.34-.53-1-.83-1-2-.09-4-.05-6.16-.05ZM72.44,150.14c-2.51,1.27-4.91,2.45-7.27,3.71a1.2,1.2,0,0,0-.35,1.1c.84,1.8,1.77,3.56,2.67,5.34L75.6,156C74.49,154,73.5,152.12,72.44,150.14Zm79.83,5.11c2.1.1,3.89.16,5.68.28.65,0,1-.19,1-.85.16-2.39.33-4.79.55-7.17.07-.87-.3-1.17-1.08-1.17H153Q152.66,150.57,152.27,155.25Zm-57.86,12c1.13,2,2.12,3.75,3.13,5.52L106,168.5,103,163Zm-22-5.71,3.1,5.5,8.45-4.32-3-5.49ZM86.22,56.34c-.19,2.9-.4,5.89-.62,9.18h5.78c.62,0,.9-.28.92-1,.06-1.43.27-2.86.34-4.29.06-1.26,0-2.52,0-3.93Zm49.36,114.39c2.06.1,4,.21,5.87.24a.9.9,0,0,0,.65-.62c.22-2.54.41-5.09.51-7.63a1.23,1.23,0,0,0-.82-.89c-1.67-.1-3.34-.08-5-.08-.55,0-.86.21-.79.89a17.54,17.54,0,0,1,0,2.51C135.85,167,135.71,168.79,135.58,170.73Zm28.51-73.82,7.91,4.85,3.65-5.23-7.79-4.93Zm-88.64-16c.17-2.69.31-5.23.47-7.78.07-1.1-.59-1.35-1.51-1.35-1.39,0-2.79,0-4.18,0a1.13,1.13,0,0,0-.8.73c-.24,2.38-.41,4.77-.57,7.16-.06.84.37,1.23,1.23,1.21C71.8,80.89,73.52,80.91,75.45,80.91Zm24.49.91c.13-2.12.25-4.13.38-6.3H91.71c-.15,1.8-.34,3.59-.43,5.38,0,.3.38.88.6.88C94.51,81.85,97.14,81.82,99.94,81.82Zm-9.82,70.66c1.83-.94,3.57-1.8,5.27-2.74a1,1,0,0,0,.37-.9c-1.09-2.24-2.25-4.45-3.44-6.76l-6.1,3.13ZM73.23,117.61c1.43-2.14,2.84-4.21,4.18-6.33a1.28,1.28,0,0,0-.12-1.2c-1.52-1.06-3.12-2-4.74-3l-4.85,7ZM128,151.92c2.71,0,5.14,0,7.57,0,.8,0,1.16-.32,1.21-1.11.08-1.31.17-2.63.32-3.93.11-1-.28-1.46-1.32-1.46-1.8,0-3.59-.12-5.39-.16-.62,0-1.24.09-2,.14C128.28,147.55,128.15,149.56,128,151.92Zm22.37-35.29,5.51,3.53,4.78-7c-1.61-1-3.11-1.93-4.55-2.92a.9.9,0,0,0-1.47.27C153.26,112.51,151.87,114.49,150.37,116.63Zm-12.15-41.8-5.83,2.9c1.26,2.53,2.46,4.93,3.72,7.48l5.93-3C140.74,79.67,139.51,77.31,138.22,74.83Zm22.26,83.57c-2.15,0-4,0-5.88,0a1.09,1.09,0,0,0-.78.64c-.21,2.36-.35,4.73-.53,7.36,2.06,0,3.84,0,5.62,0,.34,0,.93-.42,1-.7C160.12,163.41,160.27,161.11,160.48,158.4ZM49.17,130.63l3.67-5.23-7-4.24-3.61,5.39ZM88,179.42l7.28-3.83c-1-2-2-3.7-3-5.51L85,173.87C86,175.74,87,177.49,88,179.42ZM67.91,68.56l6.55.33c.2-2.34.43-4.48.53-6.63,0-.41-.44-1.21-.72-1.22-1.89-.11-3.79-.06-5.76-.06Zm1.89,36.86-6.55-4.25-3.78,5.47L66,110.79ZM86.31,152.1l-3.15-5.48c-2.15,1.06-4.26,2.07-6.33,3.16a1.14,1.14,0,0,0-.37,1.06c.8,1.67,1.71,3.3,2.6,5ZM134.36,155h-6.69c-.15,2.09-.3,4.19-.48,6.3-.06.73.22,1.18,1,1.19,1.82,0,3.64,0,5.67,0C134,160.1,134.17,157.65,134.36,155ZM94.55,64.48,94,72.32h6.58c.16-2.12.37-4.22.43-6.32a1.43,1.43,0,0,0-.85-1.12C98.39,64.66,96.57,64.6,94.55,64.48ZM42,149.82c1.46,1,2.83,1.91,4.28,2.71a1.5,1.5,0,0,0,1.44-.22c1.16-1.51,2.18-3.13,3.29-4.77l-5.3-3.2ZM111.61,182,105.89,185l3,5.62,5.74-3ZM181.16,74.31c-1.33,1.86-2.55,3.56-3.83,5.33l5.25,3.3c1.13-1.6,2.22-3.12,3.28-4.66.48-.68,0-1.16-.49-1.49C184,76,182.63,75.17,181.16,74.31ZM122.34,42.4c-1-2-2-3.84-2.93-5.76l-5.62,3,3,5.74Zm52,111.94c2.06,0,4,0,6,0,.24,0,.68-.26.7-.43.18-1.84.31-3.69.46-5.66h-6.71C174.61,150.1,174.49,152,174.33,154.34ZM47.27,73.09c-.09,1.64-.17,3.3-.25,5,0,.62.19.93.88,1,1.59,0,3.18.17,4.78.2.27,0,.76-.26.79-.45.24-1.83.39-3.66.59-5.66Zm-1.85,84.83-5.35-3.28-3.56,5.05,5.43,3.36ZM113.25,27.5l-5.84,3,2.9,5.27,5.73-3Zm79.39,126c.11-1.85.24-3.88.37-6-1.82-.1-3.46-.13-5.09-.3-.84-.09-1.06.27-1.11,1-.1,1.35-.17,2.71-.33,4.06-.1.91.31,1.25,1.12,1.26C189.16,153.55,190.71,153.54,192.64,153.54ZM183,69.23l5.28,3.34,3.51-5-5.39-3.32ZM35.26,79.76c2,.1,3.74.22,5.49.25a1.06,1.06,0,0,0,.77-.65c.17-1.77.24-3.56.35-5.45l-6.14-.28Zm77.08,114.91,2.77,5,5.6-2.86c-.88-1.83-1.71-3.57-2.56-5.36Zm-32-62.46.42-.42a.93.93,0,0,0,.24,0l4.12-2.3c-.58-1.29-1.12-2.6-1.78-3.84a1.2,1.2,0,0,0-1.12-.32c-1.14.46-2.22,1.07-3.33,1.59-.57.27-.79.6-.47,1.21.56,1.06,1.1,2.12,1.62,3.2A5.5,5.5,0,0,1,80.35,132.21Zm34.89-55c-.09,1.73-.17,3.38-.27,5.28,1.68,0,3.11,0,4.53,0,.33,0,.89-.34.93-.6a23.83,23.83,0,0,0,.3-3.68,1.25,1.25,0,0,0-.77-.93C118.43,77.14,116.89,77.19,115.24,77.19ZM89.18,93.79,84.71,90.9l-3.16,4.5,4.57,2.78Zm54.51,42.56,3.06-4.48-4.58-2.78-3,4.43Zm-36.16,13.71h5.55c.09-1.4.22-2.79.26-4.18,0-.3-.29-.86-.49-.87-1.57-.14-3.15-.18-4.77-.26C107.89,146.57,107.72,148.23,107.53,150.06ZM150.19,100c-.79-1.67-1.52-3.2-2.29-4.81l-4.78,2.51,2.3,4.69Zm-24,82.52c-.75.14-1.73.1-1.81.36-.32,1-.84,2.48-.38,3s2,.57,3.11.74c.23,0,.73-.18.73-.31a12.19,12.19,0,0,0,0-3.25C127.8,182.78,126.71,182.68,126.21,182.52ZM49.68,96l-3.29-2-1.07,1.48c-1.24,1.73-1.18,2,.6,3.21l.31.19a1.07,1.07,0,0,0,1.63-.34C48.4,97.72,49,96.93,49.68,96ZM33.12,128l-2.38,3.4,3.13,2,2.37-3.3Zm111.77,40.74a7.39,7.39,0,0,0-.2,2.08c.09.53.57,1.37.92,1.39a15.82,15.82,0,0,0,3.19-.4s0-.22.06-.34c.5-2.76.12-3.17-2.67-2.93C145.77,168.59,145.34,168.68,144.89,168.75Zm-94-47.59L54.11,123l2.41-3.26-3.12-2ZM167,78.26c3.59-1.6,3.73-2.08,1.53-4.93a1,1,0,0,0-.18-.1L165,74.86l1.69,3C166.75,78,166.85,78.08,167,78.26ZM38.06,122.43l.89-1.28c1.41-2.06,1.23-2.63-1.17-3.47a1.08,1.08,0,0,0-.46-.09c-.18,0-.44.06-.52.19-.6.91-1.57,1.84-1.58,2.77,0,.55,1.51,1.13,2.35,1.68A2.14,2.14,0,0,0,38.06,122.43ZM107.68,22.6l-1.84-3.31c-3.66,1.38-3.91,2.1-1.72,4.82a1.29,1.29,0,0,0,.29.14ZM45.32,133.1l-3.13-2-2.33,3.35,3.08,2Zm2.85-20c-.9-.53-1.69-1-2.53-1.45a1,1,0,0,0-.92.16c-.72.87-1.35,1.81-2,2.79L46,116.49Zm29,8.73,1.75,3.47,3.48-1.78-1.89-3.36ZM24.24,76c-.11.86-.24,1.75-.31,2.65a.77.77,0,0,0,.94.92c1.08-.13,2.28.6,3.23-.43,0,0,0-.08,0-.12.07-.64.15-1.27.2-1.9A.92.92,0,0,0,27.27,76Zm141.18,7.11-1.83-3.3A29.52,29.52,0,0,0,160.9,81a1.12,1.12,0,0,0-.37,1c.37.94.88,1.83,1.38,2.83ZM36.1,109.84l2.38-3.49c-.91-.54-1.73-1.09-2.61-1.52a1,1,0,0,0-.95.25c-.64.89-1.19,1.84-1.81,2.83ZM83.38,58.7a19.29,19.29,0,0,0,.2-2.73c0-.31-.46-.68-.8-.85s-.7,0-1.06,0c-2.34,0-2.33,0-2.4,2.35,0,.87.34,1.26,1.16,1.27ZM46.32,89.25l-3-2.06-2.42,3.36,3.07,1.93Zm137.49,71.91.39-3.59a16.64,16.64,0,0,0-1.79-.17c-3,0-2.41-.26-2.54,2.58,0,.71.33,1,1,1C181.75,161.05,182.62,161.1,183.81,161.16ZM56.12,158.33c-.92.47-1.75.83-2.52,1.32a1.1,1.1,0,0,0-.44.91c.39,2.45,1.58,3,3.72,1.84.38-.21.74-.45,1.19-.73Zm-23.6,12,3.15,2,2.22-3.44-3-1.87Zm105.79,2.91c-.11,1.05-.24,1.91-.26,2.78,0,.29.26.83.43.84,1.14.09,2.28.09,3.42.07.12,0,.33-.27.34-.42,0-1,0-2,0-3ZM48.6,66.42l-4.12-.2A27.4,27.4,0,0,0,44.29,69c0,.29.38.79.61.81a22.5,22.5,0,0,0,3,0c.16,0,.4-.28.43-.45C48.42,68.42,48.49,67.49,48.6,66.42ZM86.52,191.14l3.25-1.83-2-3.21C84.21,187.59,84.05,188.21,86.52,191.14Zm60.82-10.92c-1.1,0-2.13,0-3.16,0a.87.87,0,0,0-.66.47c-.17,1-.25,2-.37,3,.53.07.8.12,1.08.13C147.79,184,147.53,184.19,147.34,180.22Zm-35.72-22.08c1.09-4,.36-3.88-2.79-3.73a3.88,3.88,0,0,0-.72.17l-.41,3.29,2.22.17ZM60.4,54a6.35,6.35,0,0,0-1.24.09,1,1,0,0,0-.66.54c-.67,2,0,2.95,2.07,3a2.11,2.11,0,0,1,.36,0c1.23.3,1.56-.31,1.68-1.43C62.84,54,62.85,54,60.4,54Zm43.67,94.43a5.35,5.35,0,0,0,1.91-.25c.64-.35.73-2.91.14-3a21.22,21.22,0,0,0-3.67-.27s-.1.13-.11.2a8.59,8.59,0,0,0-.11,2.8C102.33,148.19,103.53,148.24,104.07,148.39Zm-35.31.2-1.82-3.47L63.54,147l1.85,3.37Zm106.5-79L173.35,66,170,67.91l1.84,3.21Zm25,81.64c.9.06,1.7.06,2.48.18,1.14.18,1.53-.33,1.61-1.41.18-2.25.07-2.42-2.17-2.33-.62,0-1.23.14-1.92.22ZM124,203l-3.2,1.66.91,1.74c.29.55.59,1.09.87,1.63,3.62-1.64,3.76-2.06,1.69-4.85A1.35,1.35,0,0,0,124,203ZM80.57,89.26l-3.14-2-2.32,3.35,3,1.86c.28-.37.51-.64.72-.93C79.4,90.85,79.94,90.11,80.57,89.26Zm-18,74.64c3.65-1.73,3.79-2.24,1.48-4.87a1.56,1.56,0,0,0-.2-.09l-3.18,1.65c.6,1.08,1.09,2,1.6,2.89A3.44,3.44,0,0,0,62.53,163.9Zm26.62.51c-3.49,1.49-3.67,2.07-1.62,4.9,0,.05.14.06.28.13L91,167.75Zm57.57-2.6,4,.2c.11-.92.21-1.7.3-2.48s-.21-1.22-1.05-1.2h-3ZM39.8,147.57l-3.11-1.91-2.18,3.23c.61.48,1.06.87,1.54,1.2,1.14.79,1.58.72,2.37-.39C38.88,149.05,39.28,148.37,39.8,147.57ZM86.32,50.4c-.59,3.63.18,4.32,3.63,3.35.07,0,.12-.09.24-.18V50.4Zm24.16,9.05c.07-.92.19-1.78.18-2.65,0-.28-.29-.8-.48-.81a22.74,22.74,0,0,0-3.09-.05c-.16,0-.4.35-.45.58a11.22,11.22,0,0,0-.19,1.53c-.08,1,.2,1.52,1.32,1.42C108.59,59.39,109.43,59.45,110.48,59.45ZM74.24,130l-3.35,1.78,2,3.09c3.66-1.25,3.59-1.48,1.65-4.58A1.81,1.81,0,0,0,74.24,130Zm1.32,39.73,2,3.49,3.21-1.82c-.62-1.16-1.19-2.2-1.8-3.33ZM109.58,49c-1.22,0-2.25,0-3.26,0a1.13,1.13,0,0,0-.84.62c-.15.91-.15,1.86-.22,2.91h4.08ZM77.67,65.34c-.09.36-.17.63-.23.9-.49,2.47-.31,2.69,2.18,2.7,1.85,0,2-.16,2-2.15,0-.89-.3-1.4-1.19-1.44S78.66,65.34,77.67,65.34ZM59.89,66.77c.81,0,1.56,0,2.31,0,1.78,0,1.86,0,2-1.8,0-.71.2-1.64-.72-1.79a7.69,7.69,0,0,0-3.06.13c-.26.06-.27,1.19-.37,1.84C60,65.62,59.94,66.09,59.89,66.77Zm89.54,35.16-3.31,1.73c.67,1.3,1.24,2.42,1.83,3.58l3.11-1.79C150.52,104.28,150,103.17,149.43,101.93Zm-49-61.06a21.69,21.69,0,0,0-.19,2.62c0,.31.41.84.66.86,1.09.1,2.19,0,3.25,0,.55-4,.75-3.55-2.94-3.6C101,40.8,100.74,40.84,100.42,40.87ZM128.85,176.7c-.78,4.25-.7,3.47,2.74,3.5a.63.63,0,0,0,.24,0c.22-.14.57-.27.6-.45.16-1,.24-2,.35-3Zm-24.66,19.73,3.36-1.77-1.86-3.36L102.38,193ZM51.11,90l3,2.17,2.33-3.33-3.09-1.93Zm15.12,88c3.51-1.45,3.63-1.86,1.51-4.87,0,0-.06,0-.2-.11l-3.2,1.73ZM126,82.4a12.84,12.84,0,0,0,.21-2.32,1.38,1.38,0,0,0-.72-1c-2.8-.82-3.7-.08-3.52,2.79a4.51,4.51,0,0,0,.09.55Zm-65.11,12,2.19-3.24-3-2-2.33,3.34ZM47.27,105.19l-3.12-1.54-2.09,3c3,2.34,3.74,2.15,5.19-1.24A1.41,1.41,0,0,0,47.27,105.19ZM139,140l2.41-3.16-3.14-2L136,138.05Zm33-1.56,3,1.9,2.31-3.25-3.07-1.93Zm-4.19,31.28c-2,0-2.05,0-2.09,2.13,0,.44.11,1.26.23,1.27a16.66,16.66,0,0,0,3.53,0c.17,0,.23-1.09.34-1.68a3.85,3.85,0,0,1,.08-.47c.27-.91-.19-1.25-1-1.29ZM99.65,50.56,99.92,47c-1.26,0-2.33,0-3.39,0a.92.92,0,0,0-.67.58c-.13.93-.14,1.86-.2,2.92Zm18.76,22.17c1.91.1,2.22-.21,2.22-2.11,0-.71-.2-1.39-1-1.41a21.75,21.75,0,0,0-3.1.33s0,.14-.07.22C115.8,71.91,116.26,72.63,118.41,72.73ZM94.13,185.09l3.21-1.82-2-3.34c-1.14.64-2.14,1.2-3.2,1.81Zm72.24-24.55c-1.92-.07-1.92-.07-2.09,1.34-.27,2.24-.19,2.33,2.09,2.34.16,0,.32,0,.48,0,1.09.11,1.54-.3,1.55-1.47C168.42,160.61,168.49,160.61,166.37,160.54Zm-13.19-23.81-3.05-2L147.84,138l3.08,1.93C151.67,138.87,152.38,137.87,153.18,136.73Zm31.19-1.95-2.3,3.24,3,2,2.3-3.23C186.36,136.08,185.44,135.47,184.37,134.78ZM195.82,57l-3.09-1.93-2.3,3.14,3,2ZM59.69,154.93,63,153.12l-1.86-3.37-3.22,1.8Zm92.64-61.14c.6,1.2,1.14,2.29,1.72,3.47l3.35-1.69-1.79-3.39ZM89.28,87.3,87,90.47l3,2,2.29-3.25ZM74.36,51.71h-4c-.07.91-.17,1.82-.17,2.72,0,.24.36.66.57.67,1.06.07,2.12,0,3.27,0ZM68.15,166.86c.68,1.17,1.28,2.2,1.93,3.3,1.09-.59,2.11-1.16,3.16-1.74l-1.78-3.37Zm101-30.63-3-2-2.26,3.18,3,2.05ZM76.89,179.37l2,3.26L82,180.85l-1.86-3.36Zm40.73-8.17c.82.06,1.49.12,2.16.15,2,.07,2,.05,2.19-2,.11-1.08-.19-1.56-1.35-1.43-.86.09-1.74,0-2.77,0Zm40.43,4,.23-3c-1.28-.07-2.38-.15-3.49-.16a.77.77,0,0,0-.6.39c-.13,1-.2,2-.3,3.16Zm-35.2,2.94.17-3.35h-4l-.16,3.35ZM81,46.87l1.49-.07C85.2,46.67,85.2,46.67,85,44a1.62,1.62,0,0,0-.18-.34L81,43.4Zm-47.28,67c-.89-.38-1.9-1.18-2.41-.93a3.21,3.21,0,0,0-1.6,2.24c0,.47,1.29,1.06,2,1.63Zm96.6,74.4c-2.13-.59-3-.44-3.23.55s.1,1.8.94,1.94C130,191.11,130,191.1,130.34,188.29Zm2.37,4a8.08,8.08,0,0,0-2.15-.18,1.55,1.55,0,0,0-.85,1.11c-.08.5,0,1.38.36,1.53,1.6.76,2.77-.09,2.72-1.83C132.78,192.69,132.74,192.5,132.71,192.25ZM116.66,66.49V64h-3v2.48Zm60.18-4.79L174.53,63,176,65.65l2.4-1.4ZM156.56,88.35,158,90.83l2.46-1.27L159,87ZM75.5,186.13l1.34,2.36c2.69-.85,2.88-1.53,1-3.62Zm39.18-25.2c-3.44-.35-2.94-.53-3.06,2.21C114.17,164,115,163.44,114.68,160.93ZM180.31,57.47c-.77.53-1.79.86-2,1.5s.46,1.93.89,2c.8.13,1.71-.43,2.71-.75ZM84.44,38.7h2.88c.59-2.71,0-3.19-2.73-2.33ZM32.53,88l-1.61,2.53L33,92l1.82-2.53ZM172,162.51l3.3.26c0-.93.32-2.07-.08-2.43a2.54,2.54,0,0,0-2.33-.16C172.37,160.45,172.31,161.53,172,162.51ZM37.52,96.44l-1.81,2.42L38,100.23C40,97.78,40,97.75,37.52,96.44ZM71.69,139l-1.39-2.63c-2.56,1.35-2.7,2-.86,3.71Zm120.72-2c-2.26-1.68-2-2-3.81.92l2.06,1.42c.21-.24.37-.41.51-.6C191.59,138.14,192,137.55,192.41,137ZM28.7,122.23c1.65,1.71,2.37,1.48,3.73-1.08l-2.16-1.42ZM50.52,165l1.4,2.59,2.43-1.41-1.65-2.43ZM28.21,101.48l2.31,1.29,1.67-2.45L30.05,99Zm40.63-11,2.3,1.3,1.66-2.42L70.62,88Zm-33-.08,2.24,1.34,1.82-2.43L37.69,88Zm26.11,79.91-1.44-2.43-2.34,1.24,1.45,2.56Zm90.54,12.29c.72.1,1.35.16,2,.27.81.15,1.12-.16,1.22-1,.2-1.62.19-1.69-1.43-1.7-.5,0-1,.08-1.53.13ZM39.11,138.7,37.41,141l2.32,1.42L41.36,140Zm10.33,33.12,2.31-1.43L50.14,168,48,169.28ZM95.36,34.63l.29.39a12.71,12.71,0,0,0,2.85-.36c.22-.07.3-1.67.06-1.79a3.25,3.25,0,0,0-2.39-.31C95.68,32.78,95.61,33.91,95.36,34.63Zm4.3,151.83c-2.56,1.15-2.76,2.15-.83,3.6l2.15-1.24Zm58.11-47.16,1.59-2.29-2-1.58-1.85,2.4ZM90.39,43.4c3,.32,3.12.74,3-2.12C90.07,40.64,90.24,40.8,90.39,43.4ZM65.7,49.87h3l.17-2.37L66,47.28Zm130,89.32,1.72-2.31-2.08-1.51-1.78,2.43ZM75.8,47c-.07-.84.13-2-.26-2.24a2.52,2.52,0,0,0-2.34-.17c-.48.35-.39,1.5-.57,2.41ZM69.65,181.93l1.44,2.39,2.35-1.27L72,180.61ZM55.88,64.65h-2.7L52.9,66.9C56,67.5,56.24,67.46,55.88,64.65Zm.69,112L58,179c2.6-1.24,2.71-1.79.8-3.6l-1.46.74C57.08,176.27,56.88,176.41,56.57,176.6Zm87.35,12.15c-2.94-.33-3.34-.61-3.09,2.31h3C143.84,190.23,143.88,189.53,143.92,188.75ZM98.14,39c2.93.35,3.3.61,2.85-2.24C98.34,36.2,98.19,36.31,98.14,39Zm64.45,138.45h-2.85l-.3,2.48h2.84Zm-24.54,6.45c-3.19-.12-3.25-.59-3,2.37h2.88ZM22.2,108.9l2.05.91,1.19-1.75-1.65-1.18Zm1-9.58,1.33-1.86-1.67-1-1.3,1.76Zm123.32,94-.36.36c.14.55.14,1.41.47,1.58a2.52,2.52,0,0,0,1.79-.16c.18-.08.24-1.14.1-1.22A10,10,0,0,0,146.48,193.28ZM184.89,49.5,186,51.33c.89-.53,2-.8,1.16-2.06S185.7,49.23,184.89,49.5ZM23.79,104.33,25,102.56l-1.65-1L22,103.3ZM181.17,55.72c.36.61.61,1.05.88,1.49.08.13.2.23.29.35,1.59-.84,1.73-1.11,1.11-2.05C182.59,54.22,182,55.5,181.17,55.72ZM25.3,114.16l-1.2,1.76,1.65,1,1.31-1.75Zm157.84-61.6,1.12,1.79c1.89-.92,2-1.53.42-2.68Zm-130,129.62c-.35-.63-.62-1.12-.9-1.6a1.15,1.15,0,0,0-.25-.24c-1.67.89-1.74,1.26-.45,2.74Zm77,16.14c1.88.34,2.26.2,2.38-.77s-.59-.94-1.21-1C129.91,196.49,130.2,197.49,130.17,198.32ZM47.73,172.58l-1.12-1.76c-1.82.85-1.91,1.35-.55,2.69Zm10.44,11.48-1.07-1.78-1.72,1,1.08,1.82Zm3.44,3.24,1.67-1-1.06-1.77-1.79,1ZM29.24,89.65l1.16-1.79c-1.55-1.18-1.77-1.11-2.68.76ZM63,182.86l.95,1.73c2-.81,2.12-1.25.58-2.64Zm-9.9-6.19a7,7,0,0,0,1.37-1.43c.11-.21-.39-1.05-.66-1.08a6.53,6.53,0,0,0-1.93.43ZM77.44,35.44c-2.25-.52-2.42-.4-2.36,1.67a7.82,7.82,0,0,0,2.09-.27C77.4,36.75,77.35,36,77.44,35.44Zm-51.34,74,1.58,1L29,108.61l-1.58-.84Zm50.12-69a7.77,7.77,0,0,0,2-.3c.22-.09.32-1.2.19-1.26a9.84,9.84,0,0,0-2-.52Zm67.95,157.92c-.13-.65-.07-1.4-.41-1.67a1.58,1.58,0,0,0-1.55,0c-.34.29-.29,1-.43,1.68ZM150.09,187l-.23,1.73h2.08l.27-1.73ZM71.73,40.57l-.3-.34a7.87,7.87,0,0,0-1.9.45c-.17.08-.17,1.11,0,1.22a1.8,1.8,0,0,0,1.55.21C71.49,41.85,71.53,41.1,71.73,40.57Zm10.43-8.51c-2.21-.37-2.41-.21-2.16,1.73h1.93Zm56.74,160.1-2,.1-.12,1.6C138.88,194.35,139.2,194.11,138.9,192.16Zm17.62-5.52.36.41a5.66,5.66,0,0,0,1.87-.38,1.45,1.45,0,0,0,0-1.36,1.58,1.58,0,0,0-1.48-.15C156.87,185.43,156.76,186.13,156.52,186.64Zm-86.92,0-1.8,1.06L69,189.33l1.61-.91Zm28.31-156L98,28.88c-2.16-.29-2.4-.08-2,1.69ZM31,95.42c-1.37-1.3-1.67-1.21-2.61.76l1.4.92ZM151.11,192h2l.08-1.62C151,189.92,150.87,190,151.11,192Zm48.28-51.47,1.23-1.63-1.44-1.23-1.26,1.66ZM86.54,29l-2.1-.25-.19,1.88,1.92.09Zm4.82,6.07.17-1.66c-2.31-.33-2.41-.25-2,1.57Zm112,103.07-.32-.65a7.39,7.39,0,0,0-1.21.56,4.17,4.17,0,0,0,.32.81ZM138,203.35c.35-.41.66-.64.75-.94,0-.12-.45-.58-.64-.54s-.58.38-.87.59Zm10.42-7.86-.73.8.91.7c.18-.24.5-.49.49-.73S148.71,195.82,148.4,195.49Zm-5.11,7.7.73-1c-.27-.16-.56-.46-.81-.44s-.53.35-.79.55Zm63-64.38-.29-.46-1.71.85,1.32.74ZM20.44,103.26c.64.51,1.12.32,1.4-.33a.79.79,0,0,0-.36-.67C20.66,102.05,20.5,102.61,20.44,103.26Zm-.69-4.56a15.53,15.53,0,0,0-.45,1.59s.45.28.57.22c.28-.16.66-.45.67-.7S20.18,99.27,19.75,98.7ZM91.39,24.88c-.55-.35-.83-.68-1-.64s-.46.4-.68.63c.2.18.4.5.62.51S90.82,25.16,91.39,24.88Zm55.73,173.34a9,9,0,0,0-1.4.59.86.86,0,0,0,.17.71,2.69,2.69,0,0,0,1,.14ZM86,24.63c-1.57-.36-1.62-.32-1.37,1.25ZM25.12,89.38l.29.44L27.08,89l-1.4-.64ZM95.71,27.53c-.5-.32-.77-.64-1-.6s-.47.38-.7.59c.23.2.44.53.69.58S95.21,27.83,95.71,27.53Zm-6.39.9.46.53,1-.74c-.19-.21-.51-.61-.55-.58A6.78,6.78,0,0,0,89.32,28.43Z"/><path class="cls-2" d="M147.28,113.78l43.19-64,1.54.91c-20,30.08-40.63,59.62-60.18,90.2L207,142.54l-.2,1.88-78.59-1.68c.3-.48.53-.87.78-1.24q8.12-12.31,16.26-24.61a2.09,2.09,0,0,0,.1-2.48Q121.59,68.73,97.92,23l-.7-1.38,1.79-1Z"/><path class="cls-2" d="M69.71,102.57c-2.71-1.69-5.35-3.31-7.95-5a1.22,1.22,0,0,1-.25-1.14c1.37-2.1,2.82-4.16,4.33-6.35l8.84,5.34C73.06,97.76,71.48,100,69.71,102.57Z"/><path class="cls-2" d="M132.45,75.31,128.64,68c1.64-.87,3.24-1.74,4.85-2.56,1.28-.66,2.56-1.31,3.89-1.85a1.21,1.21,0,0,1,1.11.32c1.08,1.9,2.1,3.85,3.06,5.81a1.15,1.15,0,0,1-.18,1.07C138.44,72.32,135.48,73.79,132.45,75.31Z"/><path class="cls-2" d="M67.25,142.58l9.45-4.89c1.26,2.31,2.5,4.53,3.68,6.78a.93.93,0,0,1-.23.88c-2.93,1.53-5.88,3-8.9,4.54Z"/><path class="cls-2" d="M112,71.11h-8.48c0-1.38-.06-2.61,0-3.83.1-1.79.33-3.57.42-5.37,0-.79.39-1,1.11-1,2.2.07,4.39.12,6.59.17.93,0,1.11.56,1,1.35C112.45,65.29,112.23,68.15,112,71.11Z"/><path class="cls-2" d="M66,125.69l-8.9-5.3L62,113.17l8.76,5.51Z"/><path class="cls-2" d="M90.26,164.1l-4-7.28L95.83,152c1.29,2.41,2.59,4.81,3.92,7.28Z"/><path class="cls-2" d="M139.2,147.13c2.74,0,5.26,0,7.77,0,.31,0,.9.5.89.74-.12,3.07-.33,6.13-.52,9.23-2.83,0-5.46,0-8.08,0a1,1,0,0,1-.6-.78C138.8,153.29,139,150.27,139.2,147.13Z"/><path class="cls-2" d="M85,70.07c1.08,0,2.16,0,3.23,0s1.51.48,1.41,1.6c-.24,2.58-.34,5.18-.58,7.76,0,.33-.53.87-.81.87-2.31,0-4.63-.07-6.93-.19-.75,0-.94-.62-.88-1.31q.27-3.27.52-6.56a5.49,5.49,0,0,0,0-1.07c-.16-1.12.41-1.4,1.38-1.32S84.13,70,85,70Z"/><path class="cls-2" d="M125,156.3c-.16,2.75-.27,5.41-.5,8-.18,2-.25,2-2.31,2s-4.22-.19-6.5-.29c.12-2,.24-4,.36-6,.06-1,.06-2.07.21-3.09.06-.35.5-.92.76-.91C119.61,156.06,122.19,156.19,125,156.3Z"/><path class="cls-2" d="M171.23,107l-4.78,7-8.76-5.51,4.72-7Z"/><path class="cls-2" d="M102.68,182.93c-1.17-2.21-2.25-4.28-3.36-6.35-.37-.69.08-.93.57-1.18l7.65-3.86c1.11,2.11,2.23,4.21,3.33,6.32.34.63,0,1-.55,1.3C107.84,180.36,105.39,181.59,102.68,182.93Z"/><path class="cls-2" d="M53.91,145.49,46,140.7l4.67-6.89,8,4.94Z"/><path class="cls-2" d="M117,48.72l8.57-4.45c1.18,2.34,2.34,4.64,3.63,7.18l-8.44,4.29Z"/><path class="cls-2" d="M182.36,86.64l-4.74,6.7-7.86-4.86c1.58-2.27,3.09-4.46,4.66-6.73Z"/><path class="cls-2" d="M56.87,80.58c.19-3,.35-5.78.57-8.56a.88.88,0,0,1,.64-.61c2.5.07,5,.2,7.69.32l-.59,8.85Z"/><path class="cls-2" d="M163.16,146.71c2.57,0,4.91,0,7.25,0,.83,0,1.21.48,1.1,1.44-.26,2.34-.39,4.68-.59,7.23h-8.36C162.76,152.57,163,149.63,163.16,146.71Z"/><path class="cls-2" d="M103.67,73.91c2.66,0,5.36,0,8.06,0,.17,0,.5.5.48.76-.09,2.19-.24,4.38-.37,6.58,0,.65-.41.89-1,.88-2.27,0-4.54-.06-6.81-.13-.73,0-1-.5-1-1.23C103.26,78.5,103.46,76.2,103.67,73.91Z"/><path class="cls-2" d="M149.35,91.1l-7.85,4-3.87-7.28,7.82-4.08C146.75,86.18,148,88.6,149.35,91.1Z"/><path class="cls-2" d="M82.9,143.5c-1.31-2.46-2.59-4.83-3.9-7.29l7.8-4c1.3,2.42,2.57,4.79,3.86,7.21Z"/><path class="cls-2" d="M124.75,153.42h-8.81l.64-8.14h8.64C125.05,148.16,124.9,150.84,124.75,153.42Z"/><path class="cls-2" d="M84.4,100.9c-1.62,2.32-3.18,4.58-4.83,7l-7.2-4.47,4.78-7Z"/><path class="cls-2" d="M151.19,130.93l-7.28-4.54c1.64-2.34,3.2-4.58,4.83-6.93l7.17,4.53Z"/><path class="cls-2" d="M53.94,93.66c2.26,1.36,4.37,2.63,6.47,3.91.73.43.82.92.29,1.65-1.14,1.57-2.2,3.2-3.41,5l-7.38-4.71Z"/><path class="cls-2" d="M103.09,61.87,96,61.51c.15-2.26.25-4.43.45-6.6C96.62,53,96.67,53,98.61,53l3.84,0c.82,0,1.29.39,1.23,1.25C103.5,56.79,103.29,59.26,103.09,61.87Z"/><path class="cls-2" d="M51,104.31,59.13,109l-3.76,5.5-8-4.78Z"/><path class="cls-2" d="M64.46,130.44l-3.81,5.38-8-4.9c1.14-1.69,2.19-3.29,3.32-4.82a1.16,1.16,0,0,1,1.11-.09c1.8,1.08,3.55,2.25,5.34,3.36C63,129.76,63.73,130.06,64.46,130.44Z"/><path class="cls-2" d="M130.88,54.41,134,60c-2.78,1.39-5.47,2.75-8.18,4.06a.9.9,0,0,1-.84-.31c-.78-1.33-1.51-2.7-2.23-4.08-.31-.59-.14-1,.51-1.32C125.77,57.09,128.24,55.78,130.88,54.41Z"/><path class="cls-2" d="M124.58,174l.68-8.44c2.19,0,4.18,0,6.16.05.3,0,.84.65.83,1-.09,2.31-.26,4.63-.49,6.94a1.1,1.1,0,0,1-.81.69C128.91,174.22,126.88,174.1,124.58,174Z"/><path class="cls-2" d="M72.44,150.14c1.06,2,2,3.84,3.16,5.9l-8.11,4.25c-.9-1.78-1.83-3.54-2.67-5.34a1.2,1.2,0,0,1,.35-1.1C67.53,152.59,69.93,151.41,72.44,150.14Z"/><path class="cls-2" d="M152.27,155.25q.39-4.68.75-8.91h5.39c.78,0,1.15.3,1.08,1.17-.22,2.38-.39,4.78-.55,7.17,0,.66-.34.89-1,.85C156.16,155.41,154.37,155.35,152.27,155.25Z"/><path class="cls-2" d="M94.41,167.22,103,163l3,5.54-8.47,4.24C96.53,171,95.54,169.22,94.41,167.22Z"/><path class="cls-2" d="M72.39,161.51,81,157.2l3,5.49L75.49,167Z"/><path class="cls-2" d="M86.22,56.34h6.43c0,1.41,0,2.67,0,3.93-.07,1.43-.28,2.86-.34,4.29,0,.68-.3,1-.92,1H85.6C85.82,62.23,86,59.24,86.22,56.34Z"/><path class="cls-2" d="M135.58,170.73c.13-1.94.27-3.76.37-5.58a17.54,17.54,0,0,0,0-2.51c-.07-.68.24-.88.79-.89,1.68,0,3.35,0,5,.08a1.23,1.23,0,0,1,.82.89c-.1,2.54-.29,5.09-.51,7.63a.9.9,0,0,1-.65.62C139.54,170.94,137.64,170.83,135.58,170.73Z"/><path class="cls-2" d="M164.09,96.91l3.77-5.31,7.79,4.93L172,101.76Z"/><path class="cls-2" d="M75.45,80.91c-1.93,0-3.65,0-5.36,0-.86,0-1.29-.37-1.23-1.21.16-2.39.33-4.78.57-7.16a1.13,1.13,0,0,1,.8-.73c1.39-.07,2.79,0,4.18,0,.92,0,1.58.25,1.51,1.35C75.76,75.68,75.62,78.22,75.45,80.91Z"/><path class="cls-2" d="M99.94,81.82c-2.8,0-5.43,0-8.06,0-.22,0-.61-.58-.6-.88.09-1.79.28-3.58.43-5.38h8.61C100.19,77.69,100.07,79.7,99.94,81.82Z"/><path class="cls-2" d="M90.12,152.48l-3.9-7.27,6.1-3.13c1.19,2.31,2.35,4.52,3.44,6.76a1,1,0,0,1-.37.9C93.69,150.68,92,151.54,90.12,152.48Z"/><path class="cls-2" d="M73.23,117.61l-5.53-3.56,4.85-7c1.62,1,3.22,2,4.74,3a1.28,1.28,0,0,1,.12,1.2C76.07,113.4,74.66,115.47,73.23,117.61Z"/><path class="cls-2" d="M128,151.92c.15-2.36.28-4.37.41-6.51.74,0,1.36-.15,2-.14,1.8,0,3.59.15,5.39.16,1,0,1.43.42,1.32,1.46-.15,1.3-.24,2.62-.32,3.93-.05.79-.41,1.12-1.21,1.11C133.14,151.9,130.71,151.92,128,151.92Z"/><path class="cls-2" d="M150.37,116.63c1.5-2.14,2.89-4.12,4.27-6.12a.9.9,0,0,1,1.47-.27c1.44,1,2.94,1.9,4.55,2.92l-4.78,7Z"/><path class="cls-2" d="M138.22,74.83c1.29,2.48,2.52,4.84,3.82,7.36l-5.93,3c-1.26-2.55-2.46-4.95-3.72-7.48Z"/><path class="cls-2" d="M160.48,158.4c-.21,2.71-.36,5-.61,7.29,0,.28-.62.69-1,.7-1.78.07-3.56,0-5.62,0,.18-2.63.32-5,.53-7.36a1.09,1.09,0,0,1,.78-.64C156.46,158.37,158.33,158.4,160.48,158.4Z"/><path class="cls-2" d="M49.17,130.63l-6.92-4.08,3.61-5.39,7,4.24Z"/><path class="cls-2" d="M88,179.42c-1-1.93-2-3.68-3-5.55l7.3-3.79c1,1.81,1.92,3.55,3,5.51Z"/><path class="cls-2" d="M67.91,68.56l.6-7.58c2,0,3.87,0,5.76.06.28,0,.74.81.72,1.22-.1,2.15-.33,4.29-.53,6.63Z"/><path class="cls-2" d="M69.8,105.42,66,110.79l-6.53-4.15,3.78-5.47Z"/><path class="cls-2" d="M86.31,152.1l-7.25,3.73c-.89-1.69-1.8-3.32-2.6-5a1.14,1.14,0,0,1,.37-1.06c2.07-1.09,4.18-2.1,6.33-3.16Z"/><path class="cls-2" d="M134.36,155c-.19,2.68-.37,5.13-.54,7.5-2,0-3.85,0-5.67,0-.74,0-1-.46-1-1.19.18-2.11.33-4.21.48-6.3Z"/><path class="cls-2" d="M94.55,64.48c2,.12,3.84.18,5.65.4a1.43,1.43,0,0,1,.85,1.12c-.06,2.1-.27,4.2-.43,6.32H94Z"/><path class="cls-2" d="M42,149.82l3.71-5.48,5.3,3.2c-1.11,1.64-2.13,3.26-3.29,4.77a1.5,1.5,0,0,1-1.44.22C44.85,151.73,43.48,150.77,42,149.82Z"/><path class="cls-2" d="M111.61,182l3,5.57-5.74,3-3-5.62Z"/><path class="cls-2" d="M181.16,74.31c1.47.86,2.85,1.65,4.21,2.48.53.33,1,.81.49,1.49-1.06,1.54-2.15,3.06-3.28,4.66l-5.25-3.3C178.61,77.87,179.83,76.17,181.16,74.31Z"/><path class="cls-2" d="M122.34,42.4l-5.52,2.94-3-5.74,5.62-3C120.39,38.56,121.33,40.4,122.34,42.4Z"/><path class="cls-2" d="M174.33,154.34c.16-2.34.28-4.24.41-6.11h6.71c-.15,2-.28,3.82-.46,5.66,0,.17-.46.42-.7.43C178.34,154.35,176.39,154.34,174.33,154.34Z"/><path class="cls-2" d="M47.27,73.09h6.79c-.2,2-.35,3.83-.59,5.66,0,.19-.52.45-.79.45-1.6,0-3.19-.17-4.78-.2-.69,0-.91-.33-.88-1C47.1,76.39,47.18,74.73,47.27,73.09Z"/><path class="cls-2" d="M45.42,157.92l-3.48,5.13-5.43-3.36,3.56-5.05Z"/><path class="cls-2" d="M113.25,27.5,116,32.78l-5.73,3-2.9-5.27Z"/><path class="cls-2" d="M192.64,153.54c-1.93,0-3.48,0-5,0-.81,0-1.22-.35-1.12-1.26.16-1.35.23-2.71.33-4.06.05-.7.27-1.06,1.11-1,1.63.17,3.27.2,5.09.3C192.88,149.66,192.75,151.69,192.64,153.54Z"/><path class="cls-2" d="M183,69.23l3.4-5,5.39,3.32-3.51,5Z"/><path class="cls-2" d="M35.26,79.76l.47-6.13,6.14.28c-.11,1.89-.18,3.68-.35,5.45a1.06,1.06,0,0,1-.77.65C39,80,37.25,79.86,35.26,79.76Z"/><path class="cls-2" d="M112.34,194.67l5.81-3.18c.85,1.79,1.68,3.53,2.56,5.36l-5.6,2.86Z"/><path class="cls-2" d="M80.35,132.21a5.5,5.5,0,0,0-.3-.92c-.52-1.08-1.06-2.14-1.62-3.2-.32-.61-.1-.94.47-1.21,1.11-.52,2.19-1.13,3.33-1.59a1.2,1.2,0,0,1,1.12.32c.66,1.24,1.2,2.55,1.78,3.84L81,131.75a.93.93,0,0,1-.24,0Z"/><path class="cls-2" d="M115.24,77.19c1.65,0,3.19,0,4.72,0a1.25,1.25,0,0,1,.77.93,23.83,23.83,0,0,1-.3,3.68c0,.26-.6.59-.93.6-1.42.07-2.85,0-4.53,0C115.07,80.57,115.15,78.92,115.24,77.19Z"/><path class="cls-2" d="M89.18,93.79l-3.06,4.39L81.55,95.4l3.16-4.5Z"/><path class="cls-2" d="M143.69,136.35l-4.52-2.83,3-4.43,4.58,2.78Z"/><path class="cls-2" d="M107.53,150.06c.19-1.83.36-3.49.55-5.31,1.62.08,3.2.12,4.77.26.2,0,.49.57.49.87,0,1.39-.17,2.78-.26,4.18Z"/><path class="cls-2" d="M150.19,100l-4.77,2.39-2.3-4.69,4.78-2.51C148.67,96.8,149.4,98.33,150.19,100Z"/><path class="cls-2" d="M126.21,182.52c.5.16,1.59.26,1.65.56a12.19,12.19,0,0,1,0,3.25c0,.13-.5.35-.73.31-1.09-.17-2.55-.08-3.11-.74s.06-2,.38-3C124.48,182.62,125.46,182.66,126.21,182.52Z"/><path class="cls-2" d="M49.68,96c-.67.93-1.28,1.72-1.82,2.55a1.07,1.07,0,0,1-1.63.34l-.31-.19c-1.78-1.19-1.84-1.48-.6-3.21L46.39,94Z"/><path class="cls-2" d="M33.12,128l3.12,2.07-2.37,3.3-3.13-2Z"/><path class="cls-2" d="M144.89,168.75c.45-.07.88-.16,1.3-.2,2.79-.24,3.17.17,2.67,2.93,0,.12,0,.34-.06.34a15.82,15.82,0,0,1-3.19.4c-.35,0-.83-.86-.92-1.39A7.39,7.39,0,0,1,144.89,168.75Z"/><path class="cls-2" d="M50.92,121.16l2.48-3.42,3.12,2L54.11,123Z"/><path class="cls-2" d="M167,78.26c-.13-.18-.23-.3-.31-.43l-1.69-3,3.35-1.63a1,1,0,0,1,.18.1C170.71,76.18,170.57,76.66,167,78.26Z"/><path class="cls-2" d="M38.06,122.43a2.14,2.14,0,0,1-.49-.2c-.84-.55-2.35-1.13-2.35-1.68,0-.93,1-1.86,1.58-2.77.08-.13.34-.17.52-.19a1.08,1.08,0,0,1,.46.09c2.4.84,2.58,1.41,1.17,3.47Z"/><path class="cls-2" d="M107.68,22.6l-3.27,1.65a1.29,1.29,0,0,1-.29-.14c-2.19-2.72-1.94-3.44,1.72-4.82Z"/><path class="cls-2" d="M45.32,133.1l-2.38,3.4-3.08-2,2.33-3.35Z"/><path class="cls-2" d="M48.17,113.11,46,116.49l-3.28-1.88c.7-1,1.33-1.92,2-2.79a1,1,0,0,1,.92-.16C46.48,112.07,47.27,112.58,48.17,113.11Z"/><path class="cls-2" d="M77.13,121.84l3.34-1.67,1.89,3.36-3.48,1.78Z"/><path class="cls-2" d="M24.24,76h3a.92.92,0,0,1,1.05,1.12c-.05.63-.13,1.26-.2,1.9,0,0,0,.09,0,.12-1,1-2.15.3-3.23.43a.77.77,0,0,1-.94-.92C24,77.73,24.13,76.84,24.24,76Z"/><path class="cls-2" d="M165.42,83.09l-3.51,1.76c-.5-1-1-1.89-1.38-2.83a1.12,1.12,0,0,1,.37-1,29.52,29.52,0,0,1,2.69-1.23Z"/><path class="cls-2" d="M36.1,109.84l-3-1.93c.62-1,1.17-1.94,1.81-2.83a1,1,0,0,1,.95-.25c.88.43,1.7,1,2.61,1.52Z"/><path class="cls-2" d="M83.38,58.7h-2.9c-.82,0-1.18-.4-1.16-1.27.07-2.37.06-2.39,2.4-2.35.36,0,.77-.11,1.06,0s.79.54.8.85A19.29,19.29,0,0,1,83.38,58.7Z"/><path class="cls-2" d="M46.32,89.25l-2.4,3.23-3.07-1.93,2.42-3.36Z"/><path class="cls-2" d="M183.81,161.16c-1.19-.06-2.06-.11-2.93-.14-.68,0-1-.33-1-1,.13-2.84-.47-2.54,2.54-2.58a16.64,16.64,0,0,1,1.79.17Z"/><path class="cls-2" d="M56.12,158.33l2,3.34c-.45.28-.81.52-1.19.73-2.14,1.18-3.33.61-3.72-1.84a1.1,1.1,0,0,1,.44-.91C54.37,159.16,55.2,158.8,56.12,158.33Z"/><path class="cls-2" d="M32.52,170.32,34.85,167l3,1.87-2.22,3.44Z"/><path class="cls-2" d="M138.31,173.23l3.94.25c0,1.06,0,2,0,3,0,.15-.22.42-.34.42-1.14,0-2.28,0-3.42-.07-.17,0-.44-.55-.43-.84C138.07,175.14,138.2,174.28,138.31,173.23Z"/><path class="cls-2" d="M48.6,66.42c-.11,1.07-.18,2-.31,2.93,0,.17-.27.44-.43.45a22.5,22.5,0,0,1-3,0c-.23,0-.6-.52-.61-.81a27.4,27.4,0,0,1,.19-2.81Z"/><path class="cls-2" d="M86.52,191.14c-2.47-2.93-2.31-3.55,1.24-5l2,3.21Z"/><path class="cls-2" d="M147.34,180.22c.19,4,.45,3.82-3.11,3.65-.28,0-.55-.06-1.08-.13.12-1,.2-2,.37-3a.87.87,0,0,1,.66-.47C145.21,180.19,146.24,180.22,147.34,180.22Z"/><path class="cls-2" d="M111.62,158.14l-1.7-.1-2.22-.17.41-3.29a3.88,3.88,0,0,1,.72-.17C112,154.26,112.71,154.16,111.62,158.14Z"/><path class="cls-2" d="M60.4,54c2.45,0,2.44.07,2.21,2.23-.12,1.12-.45,1.73-1.68,1.43a2.11,2.11,0,0,0-.36,0c-2.09-.06-2.74-1-2.07-3a1,1,0,0,1,.66-.54A6.35,6.35,0,0,1,60.4,54Z"/><path class="cls-2" d="M104.07,148.39c-.54-.15-1.74-.2-1.84-.56a8.59,8.59,0,0,1,.11-2.8c0-.07.08-.2.11-.2a21.22,21.22,0,0,1,3.67.27c.59.13.5,2.69-.14,3A5.35,5.35,0,0,1,104.07,148.39Z"/><path class="cls-2" d="M68.76,148.59l-3.37,1.75L63.54,147l3.4-1.85Z"/><path class="cls-2" d="M175.26,69.54l-3.45,1.58L170,67.91,173.35,66Z"/><path class="cls-2" d="M200.22,151.18v-3.34c.69-.08,1.3-.2,1.92-.22,2.24-.09,2.35.08,2.17,2.33-.08,1.08-.47,1.59-1.61,1.41C201.92,151.24,201.12,151.24,200.22,151.18Z"/><path class="cls-2" d="M124,203a1.35,1.35,0,0,1,.27.18c2.07,2.79,1.93,3.21-1.69,4.85-.28-.54-.58-1.08-.87-1.63l-.91-1.74Z"/><path class="cls-2" d="M80.57,89.26c-.63.85-1.17,1.59-1.72,2.31-.21.29-.44.56-.72.93l-3-1.86,2.32-3.35Z"/><path class="cls-2" d="M62.53,163.9a3.44,3.44,0,0,1-.3-.42c-.51-.9-1-1.81-1.6-2.89l3.18-1.65a1.56,1.56,0,0,1,.2.09C66.32,161.66,66.18,162.17,62.53,163.9Z"/><path class="cls-2" d="M89.15,164.41,91,167.75l-3.21,1.69c-.14-.07-.24-.08-.28-.13C85.48,166.48,85.66,165.9,89.15,164.41Z"/><path class="cls-2" d="M146.72,161.81l.25-3.48h3c.84,0,1.13.43,1.05,1.2s-.19,1.56-.3,2.48Z"/><path class="cls-2" d="M39.8,147.57c-.52.8-.92,1.48-1.38,2.13-.79,1.11-1.23,1.18-2.37.39-.48-.33-.93-.72-1.54-1.2l2.18-3.23Z"/><path class="cls-2" d="M86.32,50.4h3.87v3.17c-.12.09-.17.16-.24.18C86.5,54.72,85.73,54,86.32,50.4Z"/><path class="cls-2" d="M110.48,59.45c-1,0-1.89-.06-2.71,0-1.12.1-1.4-.47-1.32-1.42a11.22,11.22,0,0,1,.19-1.53c0-.23.29-.58.45-.58a22.74,22.74,0,0,1,3.09.05c.19,0,.48.53.48.81C110.67,57.67,110.55,58.53,110.48,59.45Z"/><path class="cls-2" d="M74.24,130a1.81,1.81,0,0,1,.31.29c1.94,3.1,2,3.33-1.65,4.58l-2-3.09Z"/><path class="cls-2" d="M75.56,169.77l3.38-1.66c.61,1.13,1.18,2.17,1.8,3.33l-3.21,1.82Z"/><path class="cls-2" d="M109.58,49l-.24,3.56h-4.08c.07-1,.07-2,.22-2.91a1.13,1.13,0,0,1,.84-.62C107.33,49,108.36,49,109.58,49Z"/><path class="cls-2" d="M77.67,65.34c1,0,1.9,0,2.81,0s1.22.55,1.19,1.44c-.07,2-.2,2.15-2,2.15-2.49,0-2.67-.23-2.18-2.7C77.5,66,77.58,65.7,77.67,65.34Z"/><path class="cls-2" d="M59.89,66.77c0-.68.06-1.15.13-1.62.1-.65.11-1.78.37-1.84a7.69,7.69,0,0,1,3.06-.13c.92.15.77,1.08.72,1.79-.11,1.79-.19,1.85-2,1.8C61.45,66.75,60.7,66.77,59.89,66.77Z"/><path class="cls-2" d="M149.43,101.93c.58,1.24,1.09,2.35,1.63,3.52L148,107.24c-.59-1.16-1.16-2.28-1.83-3.58Z"/><path class="cls-2" d="M100.42,40.87c.32,0,.55-.07.78-.07,3.69.05,3.49-.41,2.94,3.6-1.06,0-2.16.05-3.25,0-.25,0-.65-.55-.66-.86A21.69,21.69,0,0,1,100.42,40.87Z"/><path class="cls-2" d="M128.85,176.7h3.93c-.11,1-.19,2.05-.35,3,0,.18-.38.31-.6.45a.63.63,0,0,1-.24,0C128.15,180.17,128.07,181,128.85,176.7Z"/><path class="cls-2" d="M104.19,196.43,102.38,193l3.31-1.71,1.86,3.36Z"/><path class="cls-2" d="M51.11,90l2.24-3.09,3.09,1.93-2.33,3.33Z"/><path class="cls-2" d="M66.23,178l-1.89-3.25,3.2-1.73c.14.07.18.08.2.11C69.86,176.16,69.74,176.57,66.23,178Z"/><path class="cls-2" d="M126,82.4h-3.94a4.51,4.51,0,0,1-.09-.55c-.18-2.87.72-3.61,3.52-2.79a1.38,1.38,0,0,1,.72,1A12.84,12.84,0,0,1,126,82.4Z"/><path class="cls-2" d="M60.92,94.42l-3.16-1.88,2.33-3.34,3,2Z"/><path class="cls-2" d="M47.27,105.19a1.41,1.41,0,0,1,0,.22C45.8,108.8,45,109,42.06,106.65l2.09-3Z"/><path class="cls-2" d="M139,140l-3-1.92,2.24-3.27,3.14,2Z"/><path class="cls-2" d="M172,138.41l2.28-3.28,3.07,1.93L175,140.31Z"/><path class="cls-2" d="M167.77,169.69h1.07c.83,0,1.29.38,1,1.29a3.85,3.85,0,0,0-.08.47c-.11.59-.17,1.66-.34,1.68a16.66,16.66,0,0,1-3.53,0c-.12,0-.24-.83-.23-1.27C165.72,169.67,165.73,169.67,167.77,169.69Z"/><path class="cls-2" d="M99.65,50.56h-4c.06-1.06.07-2,.2-2.92a.92.92,0,0,1,.67-.58c1.06-.07,2.13,0,3.39,0Z"/><path class="cls-2" d="M118.41,72.73c-2.15-.1-2.61-.82-1.91-3,0-.08,0-.21.07-.22a21.75,21.75,0,0,1,3.1-.33c.76,0,1,.7,1,1.41C120.63,72.52,120.32,72.83,118.41,72.73Z"/><path class="cls-2" d="M94.13,185.09l-2-3.35c1.06-.61,2.06-1.17,3.2-1.81l2,3.34Z"/><path class="cls-2" d="M166.37,160.54c2.12.07,2,.07,2,2.2,0,1.17-.46,1.58-1.55,1.47-.16,0-.32,0-.48,0-2.28,0-2.36-.1-2.09-2.34C164.45,160.47,164.45,160.47,166.37,160.54Z"/><path class="cls-2" d="M153.18,136.73c-.8,1.14-1.51,2.14-2.26,3.19L147.84,138l2.29-3.23Z"/><path class="cls-2" d="M184.37,134.78c1.07.69,2,1.3,3,2L185.1,140l-3-2Z"/><path class="cls-2" d="M195.82,57l-2.36,3.2-3-2,2.3-3.14Z"/><path class="cls-2" d="M59.69,154.93l-1.75-3.38,3.22-1.8L63,153.12Z"/><path class="cls-2" d="M152.33,93.79l3.28-1.61,1.79,3.39-3.35,1.69C153.47,96.08,152.93,95,152.33,93.79Z"/><path class="cls-2" d="M89.28,87.3l3,1.94L90,92.49l-3-2Z"/><path class="cls-2" d="M74.36,51.71,74,55.14c-1.15,0-2.21,0-3.27,0-.21,0-.56-.43-.57-.67,0-.9.1-1.81.17-2.72Z"/><path class="cls-2" d="M68.15,166.86l3.31-1.81,1.78,3.37c-1,.58-2.07,1.15-3.16,1.74C69.43,169.06,68.83,168,68.15,166.86Z"/><path class="cls-2" d="M169.13,136.23l-2.31,3.24-3-2.05,2.26-3.18Z"/><path class="cls-2" d="M76.89,179.37l3.24-1.88L82,180.85l-3.12,1.78Z"/><path class="cls-2" d="M117.62,171.2l.23-3.24c1,0,1.91.08,2.77,0,1.16-.13,1.46.35,1.35,1.43-.2,2-.18,2-2.19,2C119.11,171.32,118.44,171.26,117.62,171.2Z"/><path class="cls-2" d="M158.05,175.15l-4.16.44c.1-1.16.17-2.17.3-3.16a.77.77,0,0,1,.6-.39c1.11,0,2.21.09,3.49.16Z"/><path class="cls-2" d="M122.85,178.09h-4l.16-3.35h4Z"/><path class="cls-2" d="M81,46.87V43.4l3.83.22A1.62,1.62,0,0,1,85,44c.17,2.71.17,2.71-2.52,2.84Z"/><path class="cls-2" d="M33.74,113.89l-2,2.94c-.75-.57-2.08-1.16-2-1.63a3.21,3.21,0,0,1,1.6-2.24C31.84,112.71,32.85,113.51,33.74,113.89Z"/><path class="cls-2" d="M130.34,188.29c-.3,2.81-.3,2.82-2.29,2.49-.84-.14-1.19-.87-.94-1.94S128.21,187.7,130.34,188.29Z"/><path class="cls-2" d="M132.71,192.25c0,.25.07.44.08.63.05,1.74-1.12,2.59-2.72,1.83-.31-.15-.44-1-.36-1.53a1.55,1.55,0,0,1,.85-1.11A8.08,8.08,0,0,1,132.71,192.25Z"/><path class="cls-2" d="M116.66,66.49h-3V64h3Z"/><path class="cls-2" d="M176.84,61.7l1.51,2.55-2.4,1.4L174.53,63Z"/><path class="cls-2" d="M156.56,88.35,159,87l1.38,2.55L158,90.83Z"/><path class="cls-2" d="M75.5,186.13l2.37-1.26c1.85,2.09,1.66,2.77-1,3.62Z"/><path class="cls-2" d="M114.68,160.93c.31,2.51-.51,3.09-3.06,2.21C111.74,160.4,111.24,160.58,114.68,160.93Z"/><path class="cls-2" d="M180.31,57.47l1.56,2.74c-1,.32-1.91.88-2.71.75-.43-.06-1.09-1.47-.89-2S179.54,58,180.31,57.47Z"/><path class="cls-2" d="M84.44,38.7l.15-2.33c2.76-.86,3.32-.38,2.73,2.33Z"/><path class="cls-2" d="M32.53,88l2.31,1.45L33,92l-2.1-1.45Z"/><path class="cls-2" d="M172,162.51c.34-1,.4-2.06.89-2.33a2.54,2.54,0,0,1,2.33.16c.4.36.08,1.5.08,2.43Z"/><path class="cls-2" d="M37.52,96.44c2.43,1.31,2.43,1.34.5,3.79l-2.31-1.37Z"/><path class="cls-2" d="M71.69,139l-2.25,1.08c-1.84-1.74-1.7-2.36.86-3.71Z"/><path class="cls-2" d="M192.41,137c-.41.58-.82,1.17-1.24,1.74-.14.19-.3.36-.51.6l-2.06-1.42C190.39,135,190.15,135.29,192.41,137Z"/><path class="cls-2" d="M28.7,122.23l1.57-2.5,2.16,1.42C31.07,123.71,30.35,123.94,28.7,122.23Z"/><path class="cls-2" d="M50.52,165l2.18-1.25,1.65,2.43-2.43,1.41Z"/><path class="cls-2" d="M28.21,101.48,30.05,99l2.14,1.32-1.67,2.45Z"/><path class="cls-2" d="M68.84,90.46,70.62,88l2.18,1.39-1.66,2.42Z"/><path class="cls-2" d="M35.81,90.38,37.69,88l2.18,1.3-1.82,2.43Z"/><path class="cls-2" d="M61.92,170.29l-2.33,1.37-1.45-2.56,2.34-1.24Z"/><path class="cls-2" d="M152.46,182.58l.22-2.28c.53-.05,1-.13,1.53-.13,1.62,0,1.63.08,1.43,1.7-.1.82-.41,1.13-1.22,1C153.81,182.74,153.18,182.68,152.46,182.58Z"/><path class="cls-2" d="M39.11,138.7,41.36,140l-1.63,2.49L37.41,141Z"/><path class="cls-2" d="M49.44,171.82,48,169.28,50.14,168l1.61,2.37Z"/><path class="cls-2" d="M95.36,34.63c.25-.72.32-1.85.81-2.07a3.25,3.25,0,0,1,2.39.31c.24.12.16,1.72-.06,1.79a12.71,12.71,0,0,1-2.85.36Z"/><path class="cls-2" d="M99.66,186.46l1.32,2.36-2.15,1.24C96.9,188.61,97.1,187.61,99.66,186.46Z"/><path class="cls-2" d="M157.77,139.3l-2.25-1.47,1.85-2.4,2,1.58Z"/><path class="cls-2" d="M90.39,43.4c-.15-2.6-.32-2.76,3-2.12C93.51,44.14,93.34,43.72,90.39,43.4Z"/><path class="cls-2" d="M65.7,49.87,66,47.28l2.93.22-.17,2.37Z"/><path class="cls-2" d="M195.71,139.19l-2.14-1.39,1.78-2.43,2.08,1.51Z"/><path class="cls-2" d="M75.8,47H72.63c.18-.91.09-2.06.57-2.41a2.52,2.52,0,0,1,2.34.17C75.93,45,75.73,46.15,75.8,47Z"/><path class="cls-2" d="M69.65,181.93,72,180.61l1.44,2.44-2.35,1.27Z"/><path class="cls-2" d="M55.88,64.65c.36,2.81.07,2.85-3,2.25l.28-2.25Z"/><path class="cls-2" d="M56.57,176.6c.31-.19.51-.33.72-.44l1.46-.74c1.91,1.81,1.8,2.36-.8,3.6Z"/><path class="cls-2" d="M143.92,188.75c0,.78-.08,1.48-.12,2.31h-3C140.58,188.14,141,188.42,143.92,188.75Z"/><path class="cls-2" d="M98.14,39c0-2.65.2-2.76,2.85-2.24C101.44,39.57,101.07,39.31,98.14,39Z"/><path class="cls-2" d="M162.59,177.41l-.31,2.48h-2.84l.3-2.48Z"/><path class="cls-2" d="M138.05,183.86l-.16,2.37H135C134.8,183.27,134.86,183.74,138.05,183.86Z"/><path class="cls-2" d="M22.2,108.9l1.59-2,1.65,1.18-1.19,1.75Z"/><path class="cls-2" d="M23.16,99.32,21.52,98.2l1.3-1.76,1.67,1Z"/><path class="cls-2" d="M146.48,193.28a10,10,0,0,1,2,.56c.14.08.08,1.14-.1,1.22a2.52,2.52,0,0,1-1.79.16c-.33-.17-.33-1-.47-1.58Z"/><path class="cls-2" d="M184.89,49.5c.81-.27,1.4-1.57,2.3-.23s-.27,1.53-1.16,2.06Z"/><path class="cls-2" d="M23.79,104.33l-1.76-1,1.3-1.74,1.65,1Z"/><path class="cls-2" d="M181.17,55.72c.84-.22,1.42-1.5,2.28-.21.62.94.48,1.21-1.11,2.05-.09-.12-.21-.22-.29-.35C181.78,56.77,181.53,56.33,181.17,55.72Z"/><path class="cls-2" d="M25.3,114.16l1.76,1-1.31,1.75-1.65-1Z"/><path class="cls-2" d="M183.14,52.56l1.54-.89c1.55,1.15,1.47,1.76-.42,2.68Z"/><path class="cls-2" d="M53.17,182.18l-1.6.9c-1.29-1.48-1.22-1.85.45-2.74a1.15,1.15,0,0,1,.25.24C52.55,181.06,52.82,181.55,53.17,182.18Z"/><path class="cls-2" d="M130.17,198.32c0-.83-.26-1.83,1.17-1.75.62,0,1.33,0,1.21,1S132.05,198.66,130.17,198.32Z"/><path class="cls-2" d="M47.73,172.58l-1.67.93c-1.36-1.34-1.27-1.84.55-2.69Z"/><path class="cls-2" d="M58.17,184.06l-1.71,1-1.08-1.82,1.72-1Z"/><path class="cls-2" d="M61.61,187.3l-1.18-1.78,1.79-1,1.06,1.77Z"/><path class="cls-2" d="M29.24,89.65l-1.52-1c.91-1.87,1.13-1.94,2.68-.76Z"/><path class="cls-2" d="M63,182.86l1.53-.91c1.54,1.39,1.44,1.83-.58,2.64Z"/><path class="cls-2" d="M53.12,176.67l-1.22-2.08a6.53,6.53,0,0,1,1.93-.43c.27,0,.77.87.66,1.08A7,7,0,0,1,53.12,176.67Z"/><path class="cls-2" d="M77.44,35.44c-.09.51,0,1.31-.27,1.4a7.82,7.82,0,0,1-2.09.27C75,35,75.19,34.92,77.44,35.44Z"/><path class="cls-2" d="M26.1,109.45l1.32-1.68,1.58.84-1.32,1.85Z"/><path class="cls-2" d="M76.22,40.45l.23-2.08a9.84,9.84,0,0,1,2,.52c.13.06,0,1.17-.19,1.26A7.77,7.77,0,0,1,76.22,40.45Z"/><path class="cls-2" d="M144.17,198.37h-2.39c.14-.64.09-1.39.43-1.68a1.58,1.58,0,0,1,1.55,0C144.1,197,144,197.72,144.17,198.37Z"/><path class="cls-2" d="M150.09,187h2.12l-.27,1.73h-2.08Z"/><path class="cls-2" d="M71.73,40.57c-.2.53-.24,1.28-.62,1.54a1.8,1.8,0,0,1-1.55-.21c-.2-.11-.2-1.14,0-1.22a7.87,7.87,0,0,1,1.9-.45Z"/><path class="cls-2" d="M82.16,32.06l-.23,1.73H80C79.75,31.85,80,31.69,82.16,32.06Z"/><path class="cls-2" d="M138.9,192.16c.3,2,0,2.19-2.16,1.7l.12-1.6Z"/><path class="cls-2" d="M156.52,186.64c.24-.51.35-1.21.76-1.48a1.58,1.58,0,0,1,1.48.15,1.45,1.45,0,0,1,0,1.36,5.66,5.66,0,0,1-1.87.38Z"/><path class="cls-2" d="M69.6,186.59l1,1.83-1.61.91-1.16-1.68Z"/><path class="cls-2" d="M97.91,30.57H96c-.36-1.77-.12-2,2-1.69Z"/><path class="cls-2" d="M31,95.42,29.79,97.1l-1.4-.92C29.33,94.21,29.63,94.12,31,95.42Z"/><path class="cls-2" d="M151.11,192c-.24-1.94-.1-2.05,2.1-1.62l-.08,1.62Z"/><path class="cls-2" d="M199.39,140.5l-1.47-1.2,1.26-1.66,1.44,1.23Z"/><path class="cls-2" d="M86.54,29l-.37,1.72-1.92-.09.19-1.88Z"/><path class="cls-2" d="M91.36,35.1,89.51,35c-.39-1.82-.29-1.9,2-1.57Z"/><path class="cls-2" d="M203.34,138.17l-1.21.72a4.17,4.17,0,0,1-.32-.81,7.39,7.39,0,0,1,1.21-.56Z"/><path class="cls-2" d="M138,203.35l-.76-.89c.29-.21.56-.54.87-.59s.67.42.64.54C138.64,202.71,138.33,202.94,138,203.35Z"/><path class="cls-2" d="M148.4,195.49c.31.33.67.54.67.77s-.31.49-.49.73l-.91-.7Z"/><path class="cls-2" d="M143.29,203.19l-.87-.91c.26-.2.51-.52.79-.55s.54.28.81.44Z"/><path class="cls-2" d="M206.26,138.81l-.68,1.13-1.32-.74,1.71-.85Z"/><path class="cls-2" d="M20.44,103.26c.06-.65.22-1.21,1-1a.79.79,0,0,1,.36.67C21.56,103.58,21.08,103.77,20.44,103.26Z"/><path class="cls-2" d="M19.75,98.7c.43.57.8.85.79,1.11s-.39.54-.67.7c-.12.06-.58-.18-.57-.22A15.53,15.53,0,0,1,19.75,98.7Z"/><path class="cls-2" d="M91.39,24.88c-.57.28-.85.52-1.11.5s-.42-.33-.62-.51c.22-.23.42-.59.68-.63S90.84,24.53,91.39,24.88Z"/><path class="cls-2" d="M147.12,198.22l-.22,1.44a2.69,2.69,0,0,1-1-.14.86.86,0,0,1-.17-.71A9,9,0,0,1,147.12,198.22Z"/><path class="cls-2" d="M86,24.63l-1.37,1.25C84.42,24.31,84.47,24.27,86,24.63Z"/><path class="cls-2" d="M25.12,89.38l.56-1,1.4.64-1.67.84Z"/><path class="cls-2" d="M95.71,27.53c-.5.3-.77.6-1,.57s-.46-.38-.69-.58c.23-.21.44-.55.7-.59S95.21,27.21,95.71,27.53Z"/><path class="cls-2" d="M89.32,28.43a6.78,6.78,0,0,1,.91-.79s.36.37.55.58l-1,.74Z"/></g></g></svg>