<svg id="Layer_1" enable-background="new 0 0 512 512" height="512" viewBox="0 0 512 512" width="512" xmlns="http://www.w3.org/2000/svg"><path d="m512 166v330h-512v-330l30-30h452z" fill="#f2f2f2"/><path d="m512 166v330h-256v-360h226z" fill="#e7e7f2"/><path d="m0 46h512v120h-512z" fill="#ff9100"/><path d="m256 46h256v120h-256z" fill="#ff641a"/><g fill="#cecee6"><path d="m301 226h30v30h-30z"/><path d="m361 226h30v30h-30z"/><path d="m421 226h30v30h-30z"/><path d="m301 286h30v30h-30z"/><path d="m361 286h30v30h-30z"/><path d="m421 286h30v30h-30z"/><path d="m301 346h30v30h-30z"/><path d="m361 346h30v30h-30z"/><path d="m421 346h30v30h-30z"/><path d="m301 406h30v30h-30z"/><path d="m361 406h30v30h-30z"/><path d="m421 406h30v30h-30z"/></g><path d="m166 226c-57.9 0-105 47.1-105 105s47.1 105 105 105 105-47.1 105-105-47.1-105-105-105z" fill="#ff9100"/><path d="m271 331c0 57.9-47.1 105-105 105v-210c57.9 0 105 47.1 105 105z" fill="#ff641a"/><path d="m166 256c-41.4 0-75 33.6-75 75s33.6 75 75 75 75-33.6 75-75-33.6-75-75-75z" fill="#f2f2f2"/><path d="m241 331c0 41.4-33.6 75-75 75v-150c41.4 0 75 33.6 75 75z" fill="#e7e7f2"/><path d="m206.499 350.499-20.998 21-19.501-19.2-15-15v-51.299h30v38.699z" fill="#575f64"/><path d="m206.499 350.499-20.998 21-19.501-19.2v-66.299h15v38.699z" fill="#474f54"/><path d="m76 16h60v90h-60z" fill="#575f64"/><path d="m106 16h30v90h-30z" fill="#474f54"/><path d="m226 16h60v90h-60z" fill="#575f64"/><path d="m256 16h30v90h-30z" fill="#474f54"/><path d="m376 16h60v90h-60z" fill="#575f64"/><path d="m406 16h30v90h-30z" fill="#474f54"/></svg>